<?xml version="1.0" standalone="no"?>
<!DOCTYPE svg PUBLIC "-//W3C//DTD SVG 20010904//EN"
 "http://www.w3.org/TR/2001/REC-SVG-20010904/DTD/svg10.dtd">
<svg version="1.0" xmlns="http://www.w3.org/2000/svg"
 width="927.000000pt" height="927.000000pt" viewBox="0 0 927.000000 927.000000"
 preserveAspectRatio="xMidYMid meet">
<metadata>
Created by potrace 1.11, written by Peter Selinger 2001-2013
</metadata>
<g transform="translate(0.000000,927.000000) scale(0.100000,-0.100000)"
fill="#000000" stroke="none">
<path d="M4927 7346 c-71 -26 -115 -75 -199 -221 -46 -80 -180 -360 -208 -435
-17 -47 -36 -93 -41 -102 -5 -10 -13 -34 -18 -55 -6 -21 -17 -60 -25 -88 -35
-120 -67 -257 -81 -348 -4 -25 -14 -43 -32 -54 -45 -29 -143 -155 -178 -229
-104 -215 -95 -511 19 -686 17 -27 34 -48 39 -48 10 0 9 -1 37 145 68 359 248
653 499 818 70 47 119 71 214 106 78 28 91 26 37 -6 -136 -80 -270 -230 -362
-404 -77 -144 -122 -308 -173 -623 -14 -87 -28 -162 -31 -168 -3 -5 4 -57 15
-116 11 -59 30 -159 41 -222 11 -63 24 -137 29 -165 5 -27 17 -95 26 -150 10
-55 23 -134 30 -175 7 -41 21 -124 30 -185 9 -60 20 -128 25 -150 5 -22 12
-83 15 -135 3 -52 11 -132 17 -177 l12 -83 317 0 318 0 7 -45 c6 -44 7 -45 41
-45 81 0 166 -48 200 -113 45 -87 56 -235 26 -321 -35 -96 -120 -142 -306
-167 l-98 -13 -57 -65 c-31 -36 -68 -76 -82 -88 -23 -21 -23 -22 -5 -22 31 0
177 34 210 48 11 5 52 23 90 41 322 145 675 492 880 865 84 153 114 218 177
380 78 201 139 454 170 695 20 160 17 633 -4 785 -24 162 -36 233 -48 275 -5
19 -19 73 -30 120 -51 205 -154 460 -270 665 -25 45 -160 247 -170 255 -3 3
-19 23 -35 45 -210 288 -609 572 -919 656 -82 22 -98 23 -149 5z m401 -310
c389 -219 737 -629 917 -1076 94 -233 149 -459 181 -735 29 -261 13 -590 -45
-900 -40 -213 -53 -225 -26 -24 9 63 20 206 25 319 35 748 -129 1367 -491
1857 -93 125 -99 133 -219 256 -118 122 -217 206 -332 280 -71 45 -86 57 -74
57 2 0 31 -15 64 -34z"/>
<path d="M4065 7306 c-27 -7 -105 -40 -172 -74 -319 -160 -589 -416 -805 -759
-111 -176 -220 -409 -273 -583 -9 -30 -21 -64 -25 -75 -24 -58 -84 -333 -101
-465 -51 -392 -34 -748 55 -1150 27 -121 98 -340 147 -454 70 -160 193 -389
241 -451 5 -5 36 -48 70 -95 79 -109 339 -368 443 -441 94 -67 286 -166 355
-184 14 -3 34 -10 45 -14 32 -13 127 -39 170 -47 l40 -7 -61 64 c-107 113
-175 234 -215 384 -25 93 -38 360 -20 408 l11 27 275 0 275 0 0 32 c0 38 -26
288 -40 378 -5 36 -12 88 -16 115 -18 147 -67 366 -121 540 -70 227 -126 384
-146 408 -12 15 -35 45 -52 67 -16 22 -53 53 -81 70 -39 23 -65 50 -107 113
-63 93 -147 248 -224 414 -86 183 -72 189 54 22 48 -64 117 -153 153 -198 36
-46 72 -94 80 -107 17 -28 35 -32 25 -6 -32 82 -34 129 -31 687 3 584 3 582
51 840 23 123 62 281 75 306 5 9 12 33 15 53 4 20 11 39 16 42 10 6 12 84 3
109 -12 31 -54 43 -109 31z m-391 -1601 c3 -8 1 -15 -4 -15 -6 0 -10 7 -10 15
0 8 2 15 4 15 2 0 6 -7 10 -15z m-757 -37 c-3 -7 -5 -2 -5 12 0 14 2 19 5 13
2 -7 2 -19 0 -25z m-27 -200 c-41 -316 -30 -788 24 -1068 58 -297 115 -469
235 -711 189 -379 425 -655 750 -878 57 -39 101 -71 98 -71 -22 0 -208 117
-304 191 -79 61 -297 274 -330 322 -13 18 -31 42 -41 53 -22 24 -153 216 -180
264 -252 457 -359 950 -324 1501 10 155 38 366 66 503 4 14 8 38 11 52 4 15 8
24 11 21 3 -3 -4 -83 -16 -179z"/>
<path d="M5322 3208 c-7 -7 -12 -38 -12 -74 0 -67 -37 -226 -69 -298 -11 -25
-16 -48 -11 -51 17 -10 172 25 207 46 53 33 65 67 61 173 -3 104 -26 160 -74
188 -42 23 -87 31 -102 16z"/>
<path d="M790 2094 c-214 -41 -361 -190 -426 -429 -27 -99 -28 -429 -1 -525
40 -146 126 -281 226 -354 65 -48 145 -74 261 -86 264 -28 441 63 542 276 21
45 38 88 38 96 0 35 15 24 36 -27 31 -77 99 -180 147 -220 57 -49 161 -99 237
-114 90 -18 251 -16 337 4 198 46 346 212 395 445 12 62 13 54 18 -200 l5
-265 183 -3 182 -2 0 265 0 265 180 0 180 0 0 -265 0 -265 185 0 185 0 0 265
0 265 180 0 180 0 2 -262 3 -263 352 -3 353 -2 0 140 0 140 -167 2 -168 3 -3
123 -3 122 141 0 140 0 0 145 0 145 -135 0 -134 0 -6 34 c-4 19 -5 77 -3 131
l3 96 165 2 165 2 0 140 0 140 -350 0 -350 0 -3 -272 -2 -273 -180 0 -180 0 0
130 0 130 148 0 c81 0 157 3 170 6 22 6 23 8 20 143 l-3 136 -350 0 -350 0 -3
-272 -2 -273 -180 0 -180 0 0 130 0 130 168 2 167 3 0 140 0 140 -350 0 -350
0 -5 -275 -5 -275 -17 88 c-56 289 -264 458 -568 459 -402 1 -622 -277 -596
-754 l7 -118 -155 0 -154 0 -27 -55 c-36 -74 -87 -105 -171 -105 -97 1 -154
46 -190 150 -26 76 -28 357 -2 440 20 66 76 135 125 155 81 34 179 7 231 -64
l23 -31 169 0 c110 0 170 4 170 10 0 34 -49 146 -94 215 -94 143 -200 196
-406 201 -69 1 -136 0 -150 -2z m1275 -365 c97 -26 149 -105 167 -249 20 -161
-12 -348 -70 -414 -50 -55 -179 -74 -258 -36 -79 39 -119 127 -130 284 -20
302 96 468 291 415z"/>
<path d="M4800 1915 l0 -134 88 -3 87 -3 3 -538 2 -537 180 0 180 0 0 260 0
260 115 0 115 0 0 -260 0 -260 350 0 350 0 0 130 0 130 -167 2 -168 3 -3 128
-3 127 141 0 140 0 0 140 0 139 -137 3 -138 3 -3 138 -3 137 171 0 170 0 0
135 0 135 -350 0 -350 0 -2 -272 -3 -273 -45 -5 -44 -5 -57 -99 c-32 -54 -62
-103 -68 -109 -8 -8 -11 62 -11 241 l0 252 90 0 90 0 0 135 0 135 -360 0 -360
0 0 -135z"/>
<path d="M6300 1375 l0 -675 185 0 186 0 -3 245 c-2 172 0 245 8 245 21 0 193
-230 362 -485 58 -88 110 -163 116 -167 14 -10 426 -10 426 0 -1 4 -32 38 -70
77 -39 38 -70 73 -70 77 0 4 68 8 150 8 l150 0 0 675 0 675 -180 0 -180 0 0
-642 -1 -643 -20 25 c-11 14 -25 32 -32 40 -7 8 -30 49 -51 90 -46 88 -105
177 -135 204 -27 24 -26 30 3 44 39 17 103 79 129 125 99 169 90 479 -19 605
-110 129 -213 152 -671 152 l-283 0 0 -675z m525 394 c111 -31 155 -183 90
-308 -33 -65 -145 -131 -222 -131 l-23 0 0 225 0 225 58 0 c31 0 75 -5 97 -11z"/>
<path d="M8147 2043 c-5 -7 -17 -49 -52 -178 -7 -27 -20 -72 -29 -100 -8 -27
-26 -88 -40 -135 -13 -47 -38 -132 -56 -190 -17 -58 -51 -172 -75 -255 -24
-82 -65 -219 -90 -303 -25 -85 -45 -160 -45 -168 0 -12 31 -14 187 -12 l187 3
45 177 c25 97 48 175 51 173 4 -2 12 -22 20 -44 l13 -41 138 0 c136 0 139 -1
144 -22 3 -13 16 -72 28 -133 l24 -110 176 -3 c97 -1 177 0 177 3 0 5 -25 113
-70 300 -10 44 -28 123 -40 175 -12 52 -36 158 -55 235 -19 77 -52 219 -75
315 -22 96 -49 207 -58 245 l-17 70 -242 3 c-133 1 -244 -1 -246 -5z m283
-533 c7 -30 18 -86 26 -124 7 -38 16 -77 19 -87 6 -18 -1 -19 -89 -19 -104 0
-102 -1 -86 60 55 215 82 315 87 324 6 9 12 -12 43 -154z"/>
</g>
</svg>
